<?xml version="1.0" encoding="utf-8"?>
<!-- Generator: Adobe Illustrator 21.1.0, SVG Export Plug-In . SVG Version: 6.00 Build 0)  -->
<svg version="1.1" id="Layer_1" xmlns="http://www.w3.org/2000/svg" xmlns:xlink="http://www.w3.org/1999/xlink" x="0px" y="0px"
	 viewBox="0 0 1450 301" style="enable-background:new 0 0 1450 301;" xml:space="preserve">
<style type="text/css">
	.st0{opacity:0.8;fill-rule:evenodd;clip-rule:evenodd;fill:#F73859;}
	.st1{opacity:0.5;fill-rule:evenodd;clip-rule:evenodd;fill:#F73859;}
	.st2{fill-rule:evenodd;clip-rule:evenodd;fill:#F73859;}
</style>
<path class="st0" d="M1458,185.6V48.1c-198.5-112.6-221.2,56.4-358.7-14.7C899.7-69.9,921.6,144.2,710,20.3
	c-136.4-79.8-150.7,108.5-364.6,8.3c-106.5-49.9-121.7,83.3-284.6-7.7C37.6,8,17.6,8.3,0.2,13.4v172.2H1458z"/>
<path class="st1" d="M1458,92.2c-191.1-106.8-214.3,58.7-348.8-11.9C912.3-23,934,191.1,725.2,67.3
	c-134.6-79.8-148.7,108.5-359.6,8.3c-105.1-49.9-120,83.3-280.8-7.7c-34.9-19.7-62.6-8.5-84.5,3.1v161.7H1458V92.2z"/>
<path class="st2" d="M0.2,157.6c186.1-100.6,210.1,61,343.2-8.8c196.9-103.3,175.3,110.8,384.1-13.1
	c134.6-79.8,148.7,108.5,359.6,8.3c105.1-49.9,120,83.3,280.8-7.7c37.9-21.4,67.3-6.4,90.1,6V301H0.2V157.6z"/>
</svg>
